Normalized EMG Linear Envelopes
nRows=43
nColumns=17

endheader
time	        VM	        VL	        RF	       GRA	        TA	   ADDLONG	   SEMIMEM	      BFLH	        GM	        GL	       TFL	   GLUTMAX	   GLUTMED	      PIRI	    OBTINT	        QF	
1.935	  0.244470	  0.220358	  0.032158	  0.447309	  0.274445	  0.076096	  0.300658	  0.627133	  0.379196	  0.063021	  0.028474	  0.330646	  0.212882	  0.453281	  0.409581	  0.837470	
1.9355	  0.248646	  0.224125	  0.032625	  0.446721	  0.275732	  0.076278	  0.300970	  0.631272	  0.382770	  0.064144	  0.028826	  0.333816	  0.212661	  0.457969	  0.412823	  0.847306	
1.936	  0.252852	  0.227926	  0.033095	  0.446031	  0.276944	  0.076452	  0.301198	  0.635282	  0.386301	  0.065282	  0.029180	  0.336958	  0.212424	  0.462616	  0.415996	  0.857120	
1.9365	  0.257088	  0.231761	  0.033568	  0.445240	  0.278081	  0.076617	  0.301344	  0.639158	  0.389787	  0.066438	  0.029536	  0.340073	  0.212173	  0.467218	  0.419099	  0.866913	
1.937	  0.261353	  0.235630	  0.034044	  0.444352	  0.279143	  0.076773	  0.301407	  0.642899	  0.393228	  0.067610	  0.029893	  0.343159	  0.211908	  0.471775	  0.422129	  0.876685	
1.9375	  0.265649	  0.239534	  0.034523	  0.443370	  0.280129	  0.076922	  0.301388	  0.646503	  0.396623	  0.068799	  0.030253	  0.346219	  0.211632	  0.476282	  0.425084	  0.886434	
1.938	  0.269974	  0.243472	  0.035005	  0.442295	  0.281039	  0.077062	  0.301288	  0.649968	  0.399971	  0.070006	  0.030615	  0.349251	  0.211347	  0.480739	  0.427964	  0.896161	
1.9385	  0.274329	  0.247447	  0.035490	  0.441130	  0.281872	  0.077196	  0.301107	  0.653293	  0.403272	  0.071231	  0.030978	  0.352255	  0.211052	  0.485143	  0.430765	  0.905864	
1.939	  0.278715	  0.251458	  0.035977	  0.439879	  0.282629	  0.077322	  0.300846	  0.656477	  0.406524	  0.072475	  0.031343	  0.355233	  0.210751	  0.489492	  0.433487	  0.915542	
1.9395	  0.283130	  0.255506	  0.036467	  0.438544	  0.283307	  0.077441	  0.300506	  0.659519	  0.409727	  0.073737	  0.031710	  0.358183	  0.210444	  0.493784	  0.436128	  0.925195	
1.94	  0.287575	  0.259592	  0.036960	  0.437126	  0.283908	  0.077553	  0.300088	  0.662419	  0.412882	  0.075018	  0.032079	  0.361107	  0.210132	  0.498017	  0.438687	  0.934820	
1.9405	  0.292050	  0.263715	  0.037456	  0.435630	  0.284430	  0.077659	  0.299592	  0.665177	  0.415988	  0.076319	  0.032450	  0.364004	  0.209818	  0.502190	  0.441161	  0.944416	
1.941	  0.296555	  0.267877	  0.037954	  0.434058	  0.284874	  0.077758	  0.299019	  0.667791	  0.419047	  0.077641	  0.032822	  0.366876	  0.209501	  0.506301	  0.443550	  0.953981	
1.9415	  0.301089	  0.272079	  0.038455	  0.432412	  0.285240	  0.077851	  0.298370	  0.670262	  0.422058	  0.078982	  0.033197	  0.369724	  0.209183	  0.510349	  0.445853	  0.963514	
1.942	  0.305652	  0.276320	  0.038959	  0.430695	  0.285527	  0.077937	  0.297646	  0.672589	  0.425022	  0.080344	  0.033573	  0.372547	  0.208866	  0.514332	  0.448069	  0.973013	
1.9425	  0.310243	  0.280601	  0.039466	  0.428910	  0.285736	  0.078018	  0.296847	  0.674772	  0.427938	  0.081728	  0.033951	  0.375349	  0.208550	  0.518251	  0.450197	  0.982477	
1.943	  0.314864	  0.284922	  0.039975	  0.427060	  0.285867	  0.078094	  0.295977	  0.676811	  0.430808	  0.083134	  0.034332	  0.378129	  0.208237	  0.522103	  0.452238	  0.991903	
1.9435	  0.319512	  0.289285	  0.040487	  0.425147	  0.285922	  0.078164	  0.295035	  0.678707	  0.433631	  0.084562	  0.034714	  0.380890	  0.207927	  0.525889	  0.454189	  1.001291	
1.944	  0.324189	  0.293689	  0.041002	  0.423176	  0.285901	  0.078229	  0.294025	  0.680461	  0.436408	  0.086013	  0.035098	  0.383632	  0.207621	  0.529607	  0.456052	  1.010639	
1.9445	  0.328894	  0.298135	  0.041519	  0.421148	  0.285804	  0.078288	  0.292948	  0.682073	  0.439139	  0.087487	  0.035484	  0.386357	  0.207321	  0.533258	  0.457827	  1.019947	
1.945	  0.333628	  0.302622	  0.042039	  0.419067	  0.285633	  0.078344	  0.291807	  0.683544	  0.441825	  0.088985	  0.035872	  0.389066	  0.207027	  0.536841	  0.459513	  1.029213	
1.9455	  0.338389	  0.307152	  0.042562	  0.416936	  0.285390	  0.078395	  0.290603	  0.684875	  0.444467	  0.090508	  0.036262	  0.391761	  0.206739	  0.540355	  0.461111	  1.038439	
1.946	  0.343178	  0.311723	  0.043087	  0.414757	  0.285075	  0.078441	  0.289339	  0.686068	  0.447066	  0.092056	  0.036654	  0.394442	  0.206460	  0.543800	  0.462621	  1.047624	
1.9465	  0.347995	  0.316337	  0.043615	  0.412534	  0.284690	  0.078484	  0.288018	  0.687122	  0.449626	  0.093630	  0.037048	  0.397111	  0.206188	  0.547176	  0.464043	  1.056769	
1.947	  0.352839	  0.320994	  0.044145	  0.410270	  0.284238	  0.078523	  0.286641	  0.688040	  0.452146	  0.095230	  0.037444	  0.399769	  0.205926	  0.550481	  0.465379	  1.065872	
1.9475	  0.357710	  0.325693	  0.044677	  0.407967	  0.283720	  0.078559	  0.285211	  0.688821	  0.454629	  0.096857	  0.037843	  0.402418	  0.205673	  0.553717	  0.466628	  1.074934	
1.948	  0.362609	  0.330435	  0.045211	  0.405628	  0.283136	  0.078592	  0.283730	  0.689466	  0.457077	  0.098512	  0.038243	  0.405058	  0.205431	  0.556882	  0.467792	  1.083954	
1.9485	  0.367533	  0.335219	  0.045747	  0.403255	  0.282490	  0.078622	  0.282200	  0.689978	  0.459491	  0.100196	  0.038646	  0.407691	  0.205199	  0.559976	  0.468871	  1.092931	
1.949	  0.372484	  0.340046	  0.046285	  0.400852	  0.281782	  0.078649	  0.280623	  0.690356	  0.461873	  0.101908	  0.039050	  0.410317	  0.204978	  0.562999	  0.469866	  1.101866	
1.9495	  0.377461	  0.344916	  0.046825	  0.398419	  0.281014	  0.078673	  0.279002	  0.690600	  0.464224	  0.103650	  0.039457	  0.412939	  0.204770	  0.565950	  0.470777	  1.110755	
1.95	  0.382464	  0.349829	  0.047367	  0.395960	  0.280187	  0.078696	  0.277338	  0.690712	  0.466545	  0.105421	  0.039866	  0.415556	  0.204573	  0.568830	  0.471607	  1.119599	
1.9505	  0.387491	  0.354783	  0.047910	  0.393476	  0.279304	  0.078716	  0.275633	  0.690692	  0.468837	  0.107223	  0.040276	  0.418171	  0.204389	  0.571638	  0.472355	  1.128396	
1.951	  0.392543	  0.359779	  0.048455	  0.390970	  0.278365	  0.078734	  0.273890	  0.690540	  0.471101	  0.109056	  0.040689	  0.420783	  0.204219	  0.574376	  0.473025	  1.137143	
1.9515	  0.397619	  0.364817	  0.049001	  0.388443	  0.277372	  0.078751	  0.272110	  0.690256	  0.473339	  0.110921	  0.041104	  0.423395	  0.204062	  0.577045	  0.473618	  1.145840	
1.952	  0.402718	  0.369896	  0.049547	  0.385899	  0.276327	  0.078766	  0.270295	  0.689842	  0.475552	  0.112818	  0.041521	  0.426007	  0.203919	  0.579644	  0.474136	  1.154484	
1.9525	  0.407839	  0.375015	  0.050095	  0.383339	  0.275232	  0.078780	  0.268447	  0.689297	  0.477740	  0.114749	  0.041940	  0.428620	  0.203790	  0.582174	  0.474583	  1.163073	
1.953	  0.412982	  0.380175	  0.050644	  0.380766	  0.274088	  0.078793	  0.266567	  0.688622	  0.479905	  0.116713	  0.042361	  0.431234	  0.203676	  0.584638	  0.474960	  1.171606	
1.9535	  0.418146	  0.385374	  0.051194	  0.378181	  0.272897	  0.078805	  0.264658	  0.687819	  0.482047	  0.118711	  0.042783	  0.433850	  0.203576	  0.587034	  0.475271	  1.180080	
1.954	  0.423328	  0.390611	  0.051745	  0.375587	  0.271661	  0.078816	  0.262720	  0.686888	  0.484167	  0.120745	  0.043208	  0.436468	  0.203492	  0.589365	  0.475517	  1.188494	
1.9545	  0.428530	  0.395888	  0.052296	  0.372986	  0.270381	  0.078827	  0.260756	  0.685830	  0.486266	  0.122815	  0.043634	  0.439088	  0.203423	  0.591632	  0.475701	  1.196844	
1.955	  0.433748	  0.401202	  0.052847	  0.370380	  0.269060	  0.078837	  0.258767	  0.684648	  0.488346	  0.124921	  0.044062	  0.441712	  0.203369	  0.593834	  0.475825	  1.205130	
1.9555	  0.438984	  0.406553	  0.053400	  0.367771	  0.267699	  0.078847	  0.256755	  0.683342	  0.490407	  0.127064	  0.044491	  0.444338	  0.203332	  0.595973	  0.475892	  1.213349	
1.956	  0.444236	  0.411941	  0.053952	  0.365160	  0.266301	  0.078857	  0.254721	  0.681915	  0.492450	  0.129246	  0.044922	  0.446968	  0.203310	  0.598049	  0.475903	  1.221499	
